<mxfile host="app.diagrams.net" agent="Mozilla/5.0 (Windows NT 10.0; Win64; x64) AppleWebKit/537.36 (KHTML, like Gecko) Chrome/134.0.0.0 Safari/537.36 Edg/134.0.0.0" version="26.2.3" pages="2">
  <diagram name="Basic flow" id="mWYCyZlLodF-OfpQ0b5t">
    <mxGraphModel dx="1036" dy="536" grid="1" gridSize="10" guides="1" tooltips="1" connect="1" arrows="1" fold="1" page="1" pageScale="1" pageWidth="850" pageHeight="1100" math="0" shadow="0">
      <root>
        <mxCell id="0" />
        <mxCell id="1" parent="0" />
        <mxCell id="8xklIvLvZYXF0TWpFD5v-30" value="" style="rounded=0;whiteSpace=wrap;html=1;fillColor=none;dashed=1;dashPattern=12 12;" vertex="1" parent="1">
          <mxGeometry x="155" y="210" width="685" height="270" as="geometry" />
        </mxCell>
        <mxCell id="8xklIvLvZYXF0TWpFD5v-3" value="" style="edgeStyle=orthogonalEdgeStyle;rounded=0;orthogonalLoop=1;jettySize=auto;html=1;" edge="1" parent="1" source="8xklIvLvZYXF0TWpFD5v-1" target="8xklIvLvZYXF0TWpFD5v-2">
          <mxGeometry relative="1" as="geometry" />
        </mxCell>
        <mxCell id="8xklIvLvZYXF0TWpFD5v-22" style="edgeStyle=orthogonalEdgeStyle;rounded=0;orthogonalLoop=1;jettySize=auto;html=1;entryX=0;entryY=0.25;entryDx=0;entryDy=0;" edge="1" parent="1" source="8xklIvLvZYXF0TWpFD5v-1" target="8xklIvLvZYXF0TWpFD5v-19">
          <mxGeometry relative="1" as="geometry" />
        </mxCell>
        <mxCell id="8xklIvLvZYXF0TWpFD5v-1" value="BBQ Question" style="ellipse;whiteSpace=wrap;html=1;aspect=fixed;fillColor=#d5e8d4;strokeColor=#82b366;" vertex="1" parent="1">
          <mxGeometry x="40" y="240" width="80" height="80" as="geometry" />
        </mxCell>
        <mxCell id="8xklIvLvZYXF0TWpFD5v-7" value="" style="edgeStyle=orthogonalEdgeStyle;rounded=0;orthogonalLoop=1;jettySize=auto;html=1;" edge="1" parent="1" source="8xklIvLvZYXF0TWpFD5v-2" target="8xklIvLvZYXF0TWpFD5v-6">
          <mxGeometry relative="1" as="geometry" />
        </mxCell>
        <mxCell id="8xklIvLvZYXF0TWpFD5v-2" value="Embed question" style="rounded=1;whiteSpace=wrap;html=1;" vertex="1" parent="1">
          <mxGeometry x="260" y="250" width="120" height="60" as="geometry" />
        </mxCell>
        <mxCell id="8xklIvLvZYXF0TWpFD5v-5" value="" style="edgeStyle=orthogonalEdgeStyle;rounded=0;orthogonalLoop=1;jettySize=auto;html=1;dashed=1;" edge="1" parent="1" source="8xklIvLvZYXF0TWpFD5v-4" target="8xklIvLvZYXF0TWpFD5v-2">
          <mxGeometry relative="1" as="geometry" />
        </mxCell>
        <mxCell id="8xklIvLvZYXF0TWpFD5v-4" value="Ollama embedding model&lt;div&gt;- nomic-embed-text&lt;/div&gt;" style="shape=hexagon;perimeter=hexagonPerimeter2;whiteSpace=wrap;html=1;fixedSize=1;fillColor=#fff2cc;strokeColor=#d6b656;" vertex="1" parent="1">
          <mxGeometry x="255" y="100" width="130" height="100" as="geometry" />
        </mxCell>
        <mxCell id="8xklIvLvZYXF0TWpFD5v-15" value="" style="edgeStyle=orthogonalEdgeStyle;rounded=0;orthogonalLoop=1;jettySize=auto;html=1;" edge="1" parent="1" source="8xklIvLvZYXF0TWpFD5v-6" target="8xklIvLvZYXF0TWpFD5v-14">
          <mxGeometry relative="1" as="geometry" />
        </mxCell>
        <mxCell id="8xklIvLvZYXF0TWpFD5v-6" value="Similarity search" style="whiteSpace=wrap;html=1;rounded=1;" vertex="1" parent="1">
          <mxGeometry x="500" y="250" width="120" height="60" as="geometry" />
        </mxCell>
        <mxCell id="8xklIvLvZYXF0TWpFD5v-8" value="Question text" style="text;html=1;align=center;verticalAlign=middle;resizable=0;points=[];autosize=1;strokeColor=none;fillColor=none;" vertex="1" parent="1">
          <mxGeometry x="160" y="258" width="90" height="30" as="geometry" />
        </mxCell>
        <mxCell id="8xklIvLvZYXF0TWpFD5v-9" value="Question vector" style="text;html=1;align=center;verticalAlign=middle;resizable=0;points=[];autosize=1;strokeColor=none;fillColor=none;" vertex="1" parent="1">
          <mxGeometry x="380" y="258" width="110" height="30" as="geometry" />
        </mxCell>
        <mxCell id="8xklIvLvZYXF0TWpFD5v-12" value="" style="edgeStyle=orthogonalEdgeStyle;rounded=0;orthogonalLoop=1;jettySize=auto;html=1;dashed=1;" edge="1" parent="1" source="8xklIvLvZYXF0TWpFD5v-11" target="8xklIvLvZYXF0TWpFD5v-6">
          <mxGeometry relative="1" as="geometry" />
        </mxCell>
        <mxCell id="8xklIvLvZYXF0TWpFD5v-17" style="edgeStyle=orthogonalEdgeStyle;rounded=0;orthogonalLoop=1;jettySize=auto;html=1;entryX=1;entryY=0.5;entryDx=0;entryDy=0;dashed=1;" edge="1" parent="1" source="8xklIvLvZYXF0TWpFD5v-11" target="8xklIvLvZYXF0TWpFD5v-14">
          <mxGeometry relative="1" as="geometry" />
        </mxCell>
        <mxCell id="8xklIvLvZYXF0TWpFD5v-11" value="Knowledge graph (Neo4j)" style="shape=cylinder3;whiteSpace=wrap;html=1;boundedLbl=1;backgroundOutline=1;size=15;fillColor=#dae8fc;strokeColor=#6c8ebf;" vertex="1" parent="1">
          <mxGeometry x="740" y="288" width="90" height="80" as="geometry" />
        </mxCell>
        <mxCell id="8xklIvLvZYXF0TWpFD5v-13" value="Vectory indices" style="text;html=1;align=center;verticalAlign=middle;resizable=0;points=[];autosize=1;strokeColor=none;fillColor=none;" vertex="1" parent="1">
          <mxGeometry x="640" y="258" width="100" height="30" as="geometry" />
        </mxCell>
        <mxCell id="8xklIvLvZYXF0TWpFD5v-20" value="" style="edgeStyle=orthogonalEdgeStyle;rounded=0;orthogonalLoop=1;jettySize=auto;html=1;" edge="1" parent="1" source="8xklIvLvZYXF0TWpFD5v-14" target="8xklIvLvZYXF0TWpFD5v-19">
          <mxGeometry relative="1" as="geometry" />
        </mxCell>
        <mxCell id="8xklIvLvZYXF0TWpFD5v-14" value="Fetch context around nodes" style="whiteSpace=wrap;html=1;rounded=1;" vertex="1" parent="1">
          <mxGeometry x="500" y="390" width="120" height="60" as="geometry" />
        </mxCell>
        <mxCell id="8xklIvLvZYXF0TWpFD5v-16" value="Top_k nodes" style="text;html=1;align=center;verticalAlign=middle;resizable=0;points=[];autosize=1;strokeColor=none;fillColor=none;" vertex="1" parent="1">
          <mxGeometry x="550" y="338" width="90" height="30" as="geometry" />
        </mxCell>
        <mxCell id="8xklIvLvZYXF0TWpFD5v-18" value="Nodes and edges" style="text;html=1;align=center;verticalAlign=middle;resizable=0;points=[];autosize=1;strokeColor=none;fillColor=none;" vertex="1" parent="1">
          <mxGeometry x="640" y="420" width="120" height="30" as="geometry" />
        </mxCell>
        <mxCell id="8xklIvLvZYXF0TWpFD5v-27" value="" style="edgeStyle=orthogonalEdgeStyle;rounded=0;orthogonalLoop=1;jettySize=auto;html=1;" edge="1" parent="1" source="8xklIvLvZYXF0TWpFD5v-19" target="8xklIvLvZYXF0TWpFD5v-26">
          <mxGeometry relative="1" as="geometry" />
        </mxCell>
        <mxCell id="8xklIvLvZYXF0TWpFD5v-19" value="Prompt LLM" style="whiteSpace=wrap;html=1;rounded=1;" vertex="1" parent="1">
          <mxGeometry x="260" y="390" width="120" height="60" as="geometry" />
        </mxCell>
        <mxCell id="8xklIvLvZYXF0TWpFD5v-21" value="Retrieved context" style="text;html=1;align=center;verticalAlign=middle;resizable=0;points=[];autosize=1;strokeColor=none;fillColor=none;" vertex="1" parent="1">
          <mxGeometry x="380" y="390" width="120" height="30" as="geometry" />
        </mxCell>
        <mxCell id="8xklIvLvZYXF0TWpFD5v-24" style="edgeStyle=orthogonalEdgeStyle;rounded=0;orthogonalLoop=1;jettySize=auto;html=1;entryX=0;entryY=0.75;entryDx=0;entryDy=0;dashed=1;" edge="1" parent="1" source="8xklIvLvZYXF0TWpFD5v-23" target="8xklIvLvZYXF0TWpFD5v-19">
          <mxGeometry relative="1" as="geometry" />
        </mxCell>
        <mxCell id="8xklIvLvZYXF0TWpFD5v-23" value="Ollama LLM&lt;div&gt;- llama3.2&lt;/div&gt;&lt;div&gt;- qwen2.5&lt;/div&gt;" style="shape=hexagon;perimeter=hexagonPerimeter2;whiteSpace=wrap;html=1;fixedSize=1;fillColor=#fff2cc;strokeColor=#d6b656;" vertex="1" parent="1">
          <mxGeometry x="15" y="385" width="130" height="100" as="geometry" />
        </mxCell>
        <mxCell id="8xklIvLvZYXF0TWpFD5v-25" value="Question text" style="text;html=1;align=center;verticalAlign=middle;resizable=0;points=[];autosize=1;strokeColor=none;fillColor=none;" vertex="1" parent="1">
          <mxGeometry x="200" y="355" width="90" height="30" as="geometry" />
        </mxCell>
        <mxCell id="8xklIvLvZYXF0TWpFD5v-29" value="" style="edgeStyle=orthogonalEdgeStyle;rounded=0;orthogonalLoop=1;jettySize=auto;html=1;" edge="1" parent="1" source="8xklIvLvZYXF0TWpFD5v-26" target="8xklIvLvZYXF0TWpFD5v-28">
          <mxGeometry relative="1" as="geometry" />
        </mxCell>
        <mxCell id="8xklIvLvZYXF0TWpFD5v-26" value="Generated answer" style="ellipse;whiteSpace=wrap;html=1;rounded=1;fillColor=#d5e8d4;strokeColor=#82b366;" vertex="1" parent="1">
          <mxGeometry x="280" y="520" width="80" height="80" as="geometry" />
        </mxCell>
        <mxCell id="8xklIvLvZYXF0TWpFD5v-28" value="Evaluate bias and accuracy" style="whiteSpace=wrap;html=1;rounded=1;" vertex="1" parent="1">
          <mxGeometry x="415" y="530" width="120" height="60" as="geometry" />
        </mxCell>
        <mxCell id="8xklIvLvZYXF0TWpFD5v-31" value="GraphRAG" style="text;html=1;align=center;verticalAlign=middle;resizable=0;points=[];autosize=1;strokeColor=none;fillColor=none;" vertex="1" parent="1">
          <mxGeometry x="720" y="180" width="80" height="30" as="geometry" />
        </mxCell>
      </root>
    </mxGraphModel>
  </diagram>
  <diagram id="7SJ_fuG8txAvmIHp3rm_" name="Reranker">
    <mxGraphModel dx="1420" dy="752" grid="1" gridSize="10" guides="1" tooltips="1" connect="1" arrows="1" fold="1" page="1" pageScale="1" pageWidth="850" pageHeight="1100" math="0" shadow="0">
      <root>
        <mxCell id="0" />
        <mxCell id="1" parent="0" />
        <mxCell id="3N98_J-D16p-dDdLRqCc-2" value="" style="edgeStyle=orthogonalEdgeStyle;rounded=0;orthogonalLoop=1;jettySize=auto;html=1;" edge="1" parent="1" source="3N98_J-D16p-dDdLRqCc-4" target="3N98_J-D16p-dDdLRqCc-6">
          <mxGeometry relative="1" as="geometry" />
        </mxCell>
        <mxCell id="3N98_J-D16p-dDdLRqCc-3" style="edgeStyle=orthogonalEdgeStyle;rounded=0;orthogonalLoop=1;jettySize=auto;html=1;entryX=0;entryY=0.25;entryDx=0;entryDy=0;" edge="1" parent="1" source="3N98_J-D16p-dDdLRqCc-4" target="3N98_J-D16p-dDdLRqCc-22">
          <mxGeometry relative="1" as="geometry" />
        </mxCell>
        <mxCell id="3N98_J-D16p-dDdLRqCc-4" value="BBQ Question" style="ellipse;whiteSpace=wrap;html=1;aspect=fixed;fillColor=#d5e8d4;strokeColor=#82b366;" vertex="1" parent="1">
          <mxGeometry x="40" y="240" width="80" height="80" as="geometry" />
        </mxCell>
        <mxCell id="3N98_J-D16p-dDdLRqCc-5" value="" style="edgeStyle=orthogonalEdgeStyle;rounded=0;orthogonalLoop=1;jettySize=auto;html=1;" edge="1" parent="1" source="3N98_J-D16p-dDdLRqCc-6" target="3N98_J-D16p-dDdLRqCc-10">
          <mxGeometry relative="1" as="geometry" />
        </mxCell>
        <mxCell id="3N98_J-D16p-dDdLRqCc-6" value="Embed question" style="rounded=1;whiteSpace=wrap;html=1;" vertex="1" parent="1">
          <mxGeometry x="260" y="250" width="120" height="60" as="geometry" />
        </mxCell>
        <mxCell id="3N98_J-D16p-dDdLRqCc-7" value="" style="edgeStyle=orthogonalEdgeStyle;rounded=0;orthogonalLoop=1;jettySize=auto;html=1;dashed=1;" edge="1" parent="1" source="3N98_J-D16p-dDdLRqCc-8" target="3N98_J-D16p-dDdLRqCc-6">
          <mxGeometry relative="1" as="geometry" />
        </mxCell>
        <mxCell id="3N98_J-D16p-dDdLRqCc-8" value="Ollama embedding model&lt;div&gt;- nomic-embed-text&lt;/div&gt;" style="shape=hexagon;perimeter=hexagonPerimeter2;whiteSpace=wrap;html=1;fixedSize=1;fillColor=#fff2cc;strokeColor=#d6b656;" vertex="1" parent="1">
          <mxGeometry x="255" y="100" width="130" height="100" as="geometry" />
        </mxCell>
        <mxCell id="3N98_J-D16p-dDdLRqCc-9" value="" style="edgeStyle=orthogonalEdgeStyle;rounded=0;orthogonalLoop=1;jettySize=auto;html=1;" edge="1" parent="1" source="3N98_J-D16p-dDdLRqCc-10" target="3N98_J-D16p-dDdLRqCc-18">
          <mxGeometry relative="1" as="geometry" />
        </mxCell>
        <mxCell id="3N98_J-D16p-dDdLRqCc-10" value="Similarity search" style="whiteSpace=wrap;html=1;rounded=1;" vertex="1" parent="1">
          <mxGeometry x="500" y="250" width="120" height="60" as="geometry" />
        </mxCell>
        <mxCell id="3N98_J-D16p-dDdLRqCc-11" value="Question text" style="text;html=1;align=center;verticalAlign=middle;resizable=0;points=[];autosize=1;strokeColor=none;fillColor=none;" vertex="1" parent="1">
          <mxGeometry x="160" y="258" width="90" height="30" as="geometry" />
        </mxCell>
        <mxCell id="3N98_J-D16p-dDdLRqCc-12" value="Question vector" style="text;html=1;align=center;verticalAlign=middle;resizable=0;points=[];autosize=1;strokeColor=none;fillColor=none;" vertex="1" parent="1">
          <mxGeometry x="380" y="258" width="110" height="30" as="geometry" />
        </mxCell>
        <mxCell id="3N98_J-D16p-dDdLRqCc-13" value="" style="edgeStyle=orthogonalEdgeStyle;rounded=0;orthogonalLoop=1;jettySize=auto;html=1;dashed=1;" edge="1" parent="1" source="3N98_J-D16p-dDdLRqCc-15" target="3N98_J-D16p-dDdLRqCc-10">
          <mxGeometry relative="1" as="geometry" />
        </mxCell>
        <mxCell id="3N98_J-D16p-dDdLRqCc-14" style="edgeStyle=orthogonalEdgeStyle;rounded=0;orthogonalLoop=1;jettySize=auto;html=1;entryX=1;entryY=0.5;entryDx=0;entryDy=0;dashed=1;" edge="1" parent="1" source="3N98_J-D16p-dDdLRqCc-15" target="3N98_J-D16p-dDdLRqCc-18">
          <mxGeometry relative="1" as="geometry" />
        </mxCell>
        <mxCell id="3N98_J-D16p-dDdLRqCc-15" value="Knowledge graph (Neo4j)" style="shape=cylinder3;whiteSpace=wrap;html=1;boundedLbl=1;backgroundOutline=1;size=15;fillColor=#dae8fc;strokeColor=#6c8ebf;" vertex="1" parent="1">
          <mxGeometry x="740" y="288" width="90" height="80" as="geometry" />
        </mxCell>
        <mxCell id="3N98_J-D16p-dDdLRqCc-16" value="Vectory indices" style="text;html=1;align=center;verticalAlign=middle;resizable=0;points=[];autosize=1;strokeColor=none;fillColor=none;" vertex="1" parent="1">
          <mxGeometry x="640" y="258" width="100" height="30" as="geometry" />
        </mxCell>
        <mxCell id="3N98_J-D16p-dDdLRqCc-34" value="" style="edgeStyle=orthogonalEdgeStyle;rounded=0;orthogonalLoop=1;jettySize=auto;html=1;" edge="1" parent="1" source="3N98_J-D16p-dDdLRqCc-18" target="3N98_J-D16p-dDdLRqCc-33">
          <mxGeometry relative="1" as="geometry" />
        </mxCell>
        <mxCell id="3N98_J-D16p-dDdLRqCc-18" value="Fetch context around nodes" style="whiteSpace=wrap;html=1;rounded=1;" vertex="1" parent="1">
          <mxGeometry x="500" y="390" width="120" height="60" as="geometry" />
        </mxCell>
        <mxCell id="3N98_J-D16p-dDdLRqCc-19" value="Top_k nodes" style="text;html=1;align=center;verticalAlign=middle;resizable=0;points=[];autosize=1;strokeColor=none;fillColor=none;" vertex="1" parent="1">
          <mxGeometry x="550" y="338" width="90" height="30" as="geometry" />
        </mxCell>
        <mxCell id="3N98_J-D16p-dDdLRqCc-20" value="Nodes and edges" style="text;html=1;align=center;verticalAlign=middle;resizable=0;points=[];autosize=1;strokeColor=none;fillColor=none;" vertex="1" parent="1">
          <mxGeometry x="640" y="420" width="120" height="30" as="geometry" />
        </mxCell>
        <mxCell id="3N98_J-D16p-dDdLRqCc-21" value="" style="edgeStyle=orthogonalEdgeStyle;rounded=0;orthogonalLoop=1;jettySize=auto;html=1;" edge="1" parent="1" source="3N98_J-D16p-dDdLRqCc-22" target="3N98_J-D16p-dDdLRqCc-28">
          <mxGeometry relative="1" as="geometry" />
        </mxCell>
        <mxCell id="3N98_J-D16p-dDdLRqCc-22" value="Prompt LLM" style="whiteSpace=wrap;html=1;rounded=1;" vertex="1" parent="1">
          <mxGeometry x="260" y="570" width="120" height="60" as="geometry" />
        </mxCell>
        <mxCell id="3N98_J-D16p-dDdLRqCc-23" value="Retrieved context" style="text;html=1;align=center;verticalAlign=middle;resizable=0;points=[];autosize=1;strokeColor=none;fillColor=none;" vertex="1" parent="1">
          <mxGeometry x="385" y="390" width="120" height="30" as="geometry" />
        </mxCell>
        <mxCell id="3N98_J-D16p-dDdLRqCc-24" style="edgeStyle=orthogonalEdgeStyle;rounded=0;orthogonalLoop=1;jettySize=auto;html=1;entryX=0;entryY=0.75;entryDx=0;entryDy=0;dashed=1;" edge="1" parent="1" source="3N98_J-D16p-dDdLRqCc-25" target="3N98_J-D16p-dDdLRqCc-22">
          <mxGeometry relative="1" as="geometry" />
        </mxCell>
        <mxCell id="3N98_J-D16p-dDdLRqCc-25" value="Ollama LLM&lt;div&gt;- llama3.2&lt;/div&gt;&lt;div&gt;- qwen2.5&lt;/div&gt;" style="shape=hexagon;perimeter=hexagonPerimeter2;whiteSpace=wrap;html=1;fixedSize=1;fillColor=#fff2cc;strokeColor=#d6b656;" vertex="1" parent="1">
          <mxGeometry x="20" y="550" width="130" height="100" as="geometry" />
        </mxCell>
        <mxCell id="3N98_J-D16p-dDdLRqCc-26" value="Question text" style="text;html=1;align=center;verticalAlign=middle;resizable=0;points=[];autosize=1;strokeColor=none;fillColor=none;" vertex="1" parent="1">
          <mxGeometry x="190" y="520" width="90" height="30" as="geometry" />
        </mxCell>
        <mxCell id="3N98_J-D16p-dDdLRqCc-27" value="" style="edgeStyle=orthogonalEdgeStyle;rounded=0;orthogonalLoop=1;jettySize=auto;html=1;" edge="1" parent="1" source="3N98_J-D16p-dDdLRqCc-28" target="3N98_J-D16p-dDdLRqCc-29">
          <mxGeometry relative="1" as="geometry" />
        </mxCell>
        <mxCell id="3N98_J-D16p-dDdLRqCc-28" value="Generated answer" style="ellipse;whiteSpace=wrap;html=1;rounded=1;fillColor=#d5e8d4;strokeColor=#82b366;" vertex="1" parent="1">
          <mxGeometry x="440" y="560" width="80" height="80" as="geometry" />
        </mxCell>
        <mxCell id="3N98_J-D16p-dDdLRqCc-29" value="Evaluate bias and accuracy" style="whiteSpace=wrap;html=1;rounded=1;" vertex="1" parent="1">
          <mxGeometry x="580" y="570" width="120" height="60" as="geometry" />
        </mxCell>
        <mxCell id="3N98_J-D16p-dDdLRqCc-36" style="edgeStyle=orthogonalEdgeStyle;rounded=0;orthogonalLoop=1;jettySize=auto;html=1;" edge="1" parent="1" source="3N98_J-D16p-dDdLRqCc-33" target="3N98_J-D16p-dDdLRqCc-22">
          <mxGeometry relative="1" as="geometry" />
        </mxCell>
        <mxCell id="3N98_J-D16p-dDdLRqCc-33" value="Rerank retrieved context" style="whiteSpace=wrap;html=1;rounded=1;" vertex="1" parent="1">
          <mxGeometry x="260" y="390" width="120" height="60" as="geometry" />
        </mxCell>
        <mxCell id="3N98_J-D16p-dDdLRqCc-37" value="Retrieved context" style="text;html=1;align=center;verticalAlign=middle;resizable=0;points=[];autosize=1;strokeColor=none;fillColor=none;" vertex="1" parent="1">
          <mxGeometry x="310" y="498" width="120" height="30" as="geometry" />
        </mxCell>
        <mxCell id="agryaNK4TIV4HIww5iRf-1" value="" style="rounded=0;whiteSpace=wrap;html=1;fillColor=none;dashed=1;dashPattern=12 12;" vertex="1" parent="1">
          <mxGeometry x="155" y="210" width="685" height="430" as="geometry" />
        </mxCell>
        <mxCell id="agryaNK4TIV4HIww5iRf-2" value="GraphRAG" style="text;html=1;align=center;verticalAlign=middle;resizable=0;points=[];autosize=1;strokeColor=none;fillColor=none;" vertex="1" parent="1">
          <mxGeometry x="720" y="180" width="80" height="30" as="geometry" />
        </mxCell>
      </root>
    </mxGraphModel>
  </diagram>
</mxfile>
